<?xml version="1.0" encoding="iso-8859-1"?>
<!-- Uploaded to: SVG Repo, www.svgrepo.com, Generator: SVG Repo Mixer Tools -->
<svg version="1.1" id="Layer_1" xmlns="http://www.w3.org/2000/svg" xmlns:xlink="http://www.w3.org/1999/xlink" 
	 viewBox="0 0 370 370" xml:space="preserve">
<g id="XMLID_7_">
	<rect id="XMLID_484_" x="5" y="140" style="fill:#CCF7F9;" width="360" height="230"/>
	<rect id="XMLID_486_" x="185" y="140" style="fill:#00D7DF;" width="180" height="230"/>
	<polygon id="XMLID_487_" style="fill:#00A1A7;" points="185,280 5,140 185,120 365,140 	"/>
	<polygon id="XMLID_488_" style="fill:#CCF7F9;" points="185,0 5,140 365,140 	"/>
	<polygon id="XMLID_489_" style="fill:#00D7DF;" points="185,0 185,140 365,140 	"/>
	<polygon id="XMLID_490_" style="fill:#006C70;" points="185,280 185,140 365,140 	"/>
	<g id="XMLID_47_">
		<path id="XMLID_493_" style="fill:#FFFFFF;" d="M123.299,314.392c-0.135-0.179-0.605-0.515-1.412-1.009
			c-0.807-0.493-1.816-1.009-3.025-1.547c-1.211-0.538-2.533-1.009-3.969-1.412c-1.436-0.403-2.869-0.605-4.305-0.605
			c-3.945,0-5.918,1.323-5.918,3.968c0,0.808,0.213,1.479,0.641,2.018c0.424,0.538,1.053,1.02,1.883,1.446
			c0.828,0.427,1.871,0.818,3.127,1.177c1.254,0.359,2.711,0.763,4.371,1.21c2.287,0.629,4.348,1.312,6.188,2.052
			c1.838,0.739,3.395,1.659,4.674,2.757c1.277,1.1,2.262,2.433,2.959,4.002c0.693,1.569,1.041,3.452,1.041,5.648
			c0,2.69-0.504,4.966-1.512,6.826c-1.01,1.86-2.344,3.362-4.002,4.506c-1.66,1.143-3.564,1.973-5.717,2.488
			c-2.152,0.515-4.371,0.774-6.658,0.774c-1.748,0-3.541-0.135-5.379-0.404c-1.84-0.269-3.631-0.66-5.381-1.177
			c-1.748-0.515-3.441-1.131-5.076-1.849c-1.639-0.717-3.15-1.547-4.539-2.488l4.842-9.617c0.178,0.225,0.762,0.65,1.748,1.278
			c0.984,0.628,2.207,1.255,3.664,1.883s3.082,1.189,4.877,1.681c1.793,0.494,3.607,0.74,5.447,0.74c3.9,0,5.85-1.188,5.85-3.564
			c0-0.897-0.291-1.636-0.873-2.219c-0.584-0.583-1.391-1.11-2.422-1.581s-2.252-0.907-3.664-1.312
			c-1.412-0.403-2.949-0.85-4.607-1.345c-2.197-0.673-4.102-1.4-5.717-2.185c-1.613-0.784-2.947-1.691-4-2.724
			c-1.055-1.031-1.84-2.219-2.355-3.564c-0.516-1.345-0.773-2.914-0.773-4.707c0-2.511,0.473-4.729,1.414-6.658
			c0.941-1.927,2.219-3.553,3.832-4.875c1.615-1.322,3.486-2.32,5.615-2.993c2.129-0.672,4.383-1.009,6.76-1.009
			c1.658,0,3.295,0.158,4.908,0.471c1.615,0.314,3.16,0.718,4.641,1.211c1.479,0.494,2.857,1.054,4.137,1.681
			c1.277,0.629,2.453,1.256,3.529,1.884L123.299,314.392z"/>
		<path id="XMLID_495_" style="fill:#FFFFFF;" d="M139.371,348.151v-47.748h20.377c2.287,0,4.381,0.471,6.287,1.413
			c1.906,0.941,3.541,2.175,4.91,3.698c1.367,1.525,2.443,3.251,3.229,5.179c0.783,1.928,1.176,3.878,1.176,5.851
			c0,2.107-0.369,4.125-1.109,6.052c-0.74,1.929-1.771,3.655-3.094,5.179c-1.322,1.524-2.926,2.735-4.809,3.632
			c-1.883,0.897-3.967,1.345-6.254,1.345H150.4v15.4L139.371,348.151L139.371,348.151z M150.4,323.134h9.012
			c1.299,0,2.42-0.56,3.361-1.681c0.941-1.12,1.414-2.758,1.414-4.909c0-1.12-0.146-2.085-0.438-2.892
			c-0.293-0.808-0.686-1.479-1.178-2.018c-0.494-0.538-1.053-0.931-1.682-1.177c-0.627-0.246-1.256-0.37-1.883-0.37H150.4V323.134z"
			/>
		<path id="XMLID_498_" style="fill:#FFFFFF;" d="M194.582,300.403h9.953l17.418,47.748h-11.299l-3.699-10.693h-14.861
			l-3.631,10.693h-11.299L194.582,300.403z M205.141,329.859l-5.582-16.88l-5.717,16.88H205.141z"/>
		<path id="XMLID_502_" style="fill:#FFFFFF;" d="M267.684,348.151V319.57l-10.357,20.78h-5.918l-10.357-20.78v28.581h-11.027
			v-47.748h11.971l12.373,24.95l12.441-24.95h11.902v47.748H267.684z"/>
	</g>
	<g id="XMLID_8_">
		<polygon id="XMLID_46_" points="225.5,136.706 262.373,99.833 249.016,86.476 225.5,109.992 		"/>
		<polygon id="XMLID_45_" points="225.5,188.887 249.016,212.403 262.373,199.046 225.5,162.173 		"/>
		<rect id="XMLID_44_" x="225.5" y="140" width="47.648" height="18.889"/>
		<g id="XMLID_40_">
			<polygon id="XMLID_505_" style="fill:#006C70;" points="141,106.492 120.984,86.476 107.627,99.833 141,133.206 			"/>
			<polygon id="XMLID_506_" style="fill:#006C70;" points="141,165.673 107.627,199.046 120.984,212.403 141,192.387 			"/>
			<rect id="XMLID_507_" x="96.852" y="140" style="fill:#006C70;" width="44.148" height="18.889"/>
		</g>
		<circle id="XMLID_39_" style="fill:#FF9811;" cx="185" cy="86.476" r="37.777"/>
		<path id="XMLID_38_" style="fill:#FF5023;" d="M185,48.698c20.864,0,37.777,16.915,37.777,37.778
			c0,20.864-16.913,37.778-37.777,37.778"/>
		<circle id="XMLID_37_" style="fill:#FFDA44;" cx="185" cy="149.439" r="69.26"/>
		<path id="XMLID_36_" style="fill:#FF9811;" d="M185,80.181c38.251,0,69.26,31.007,69.26,69.259
			c0,38.251-31.009,69.259-69.26,69.259"/>
		<circle id="XMLID_35_" style="fill:#FF9811;" cx="153.519" cy="124.254" r="12.593"/>
		<circle id="XMLID_34_" style="fill:#FF5023;" cx="216.481" cy="124.254" r="12.593"/>
		<circle id="XMLID_33_" style="fill:#FF9811;" cx="185" cy="174.624" r="18.889"/>
		<path id="XMLID_32_" style="fill:#FF5023;" d="M185,155.736c10.432,0,18.889,8.457,18.889,18.888
			c0,10.433-8.457,18.89-18.889,18.89"/>
	</g>
</g>
</svg>